<svg width="48" height="48" viewBox="0 0 48 48" fill="none" xmlns="http://www.w3.org/2000/svg">
<path fill-rule="evenodd" clip-rule="evenodd" d="M29.231 2.62994C26.6251 -0.876646 21.3749 -0.876647 18.769 2.62994C17.3374 4.55652 14.9626 5.54019 12.5879 5.19024C8.26581 4.5533 4.5533 8.26581 5.19024 12.5879C5.54019 14.9626 4.55652 17.3374 2.62994 18.769C-0.876647 21.3749 -0.876646 26.6251 2.62994 29.231C4.55652 30.6626 5.54019 33.0374 5.19024 35.4121C4.5533 39.7342 8.26581 43.4467 12.5879 42.8098C14.9626 42.4598 17.3374 43.4435 18.769 45.3701C21.3749 48.8767 26.6251 48.8767 29.231 45.3701C30.6626 43.4435 33.0374 42.4598 35.4121 42.8098C39.7342 43.4467 43.4467 39.7342 42.8098 35.4121C42.4598 33.0374 43.4435 30.6626 45.3701 29.231C48.8767 26.6251 48.8767 21.3749 45.3701 18.769C43.4435 17.3374 42.4598 14.9626 42.8098 12.5879C43.4467 8.26581 39.7342 4.5533 35.4121 5.19024C33.0374 5.54019 30.6626 4.55652 29.231 2.62994ZM24.0002 9.41154C25.2087 9.41154 26.1884 10.3913 26.1884 11.5998V21.8118H36.4001C37.6086 21.8118 38.5884 22.7915 38.5884 24.0001C38.5884 25.2086 37.6086 26.1884 36.4001 26.1884H26.1884V36.4003C26.1884 37.6089 25.2087 38.5886 24.0002 38.5886C22.7916 38.5886 21.8119 37.6089 21.8119 36.4003V26.1884H11.5996C10.391 26.1884 9.41128 25.2086 9.41128 24.0001C9.41128 22.7915 10.391 21.8118 11.5996 21.8118H21.8119V11.5998C21.8119 10.3913 22.7916 9.41154 24.0002 9.41154Z" fill="#333333"/>
</svg>
