<svg width="100" height="36" viewBox="0 0 100 36" fill="none" xmlns="http://www.w3.org/2000/svg">
<rect width="100" height="36" rx="18" fill="#333333"/>
<path d="M42.93 21.858V17.166H41.366V21.858H42.93ZM44.256 23.252H41.366V24.561H40.04V18.798C39.785 19.24 39.53 19.614 39.241 19.988C39.173 19.58 38.833 18.628 38.612 18.203C39.734 16.69 40.431 14.429 40.89 12.015H38.969V10.587H44.715V12.015H42.386C42.114 13.307 41.791 14.582 41.383 15.772H44.256V23.252ZM50.206 19.937H52.246V18.22H50.206V19.937ZM46.908 19.937H48.829V18.22H46.959V18.424C46.959 18.883 46.942 19.41 46.908 19.937ZM50.308 12.44H47.469C47.18 13.001 46.823 13.562 46.466 14.055H49.203C49.577 13.613 49.968 13.001 50.308 12.44ZM46.959 15.398V16.979H48.829V15.398H46.959ZM52.246 16.979V15.398H50.206V16.979H52.246ZM53.742 14.055V23.609C53.742 24.34 53.623 24.731 53.164 24.952C52.705 25.19 51.991 25.207 50.971 25.207C50.937 24.816 50.784 24.221 50.614 23.847C51.226 23.864 51.821 23.864 51.991 23.864C52.195 23.847 52.246 23.796 52.246 23.592V21.28H50.206V24.68H48.829V21.28H46.738C46.5 22.759 45.99 24.255 44.987 25.377C44.732 25.105 44.103 24.68 43.746 24.527C45.327 22.793 45.497 20.311 45.497 18.407V15.262C45.259 15.5 45.038 15.755 44.783 15.976C44.613 15.67 44.137 15.058 43.865 14.752C45.276 13.562 46.517 11.692 47.197 9.703L48.557 10.06C48.421 10.434 48.285 10.791 48.132 11.148H51.175L51.413 11.08L52.433 11.743C52.025 12.491 51.447 13.341 50.852 14.055H53.742ZM57.958 13.086V15.483H56.411V11.59H62.82C62.65 11.097 62.378 10.519 62.14 10.043L63.704 9.584C64.061 10.213 64.452 11.012 64.656 11.59H70.606V15.483H68.991V13.086H57.958ZM64.299 20.362V23.337C65.047 23.473 65.863 23.507 66.73 23.507C67.478 23.507 70.317 23.507 71.286 23.49C71.031 23.864 70.776 24.612 70.708 25.088H66.645C63.296 25.088 60.865 24.527 59.318 21.824C58.757 23.269 57.958 24.476 56.904 25.394C56.666 25.105 56.003 24.561 55.646 24.323C57.499 22.929 58.366 20.549 58.706 17.557L60.304 17.727C60.202 18.475 60.083 19.206 59.913 19.869C60.525 21.467 61.477 22.368 62.667 22.895V16.418H58.74V14.922H68.311V16.418H64.299V18.883H69.161V20.362H64.299Z" fill="#95EC69"/>
<path fill-rule="evenodd" clip-rule="evenodd" d="M80.4541 11.992L81.5147 10.865L87.355 17.0703C87.7174 17.4553 87.7174 18.0559 87.355 18.441L81.5147 24.6462L80.4541 23.5193L85.8787 17.7556L80.4541 11.992Z" fill="#95EC69"/>
<path d="M20.5455 13.5H27.7778C28.6667 13.5 30 12.5591 30 11.25C30 9.61364 28.4889 9 27.7778 9C27.0667 9 21.1111 9 17.5556 9C16.2222 9 14 10.6364 14 13.0909C14 15.5455 15.5 18 20 18.5M25.8636 16.75C26.9007 16.8864 28.4333 17.3636 29.5 19M20.5455 22.5H16.2222C15.3333 22.5 14 23.1136 14 24.75C14 26.3864 15.3333 27 16.2222 27C16.9333 27 18.9158 27 20.5455 27M29.5 24.75C29.2037 25.4318 28.1507 27 25.8636 27M26.6679 22.8143L25.4061 23.375C24.7449 23.669 24 23.1849 24 22.4612V21.1995C24 20.437 24.8191 19.9551 25.4856 20.3254L26.7474 21.0263C27.4685 21.4269 27.4217 22.4792 26.6679 22.8143Z" stroke="#95EC69" stroke-width="2" stroke-linecap="round"/>
</svg>
