<svg width="49" height="48" viewBox="0 0 49 48" fill="none" xmlns="http://www.w3.org/2000/svg">
<path fill-rule="evenodd" clip-rule="evenodd" d="M29.8594 2.62994C27.2536 -0.876646 22.0033 -0.876647 19.3975 2.62994C17.9658 4.55652 15.591 5.54019 13.2163 5.19024C8.89423 4.5533 5.18172 8.26581 5.81866 12.5879C6.16861 14.9626 5.18494 17.3374 3.25836 18.769C-0.248229 21.3749 -0.248228 26.6251 3.25836 29.231C5.18494 30.6626 6.16861 33.0374 5.81866 35.4121C5.18172 39.7342 8.89423 43.4467 13.2163 42.8098C15.591 42.4598 17.9658 43.4435 19.3975 45.3701C22.0033 48.8767 27.2536 48.8767 29.8594 45.3701C31.2911 43.4435 33.6658 42.4598 36.0405 42.8098C40.3626 43.4467 44.0751 39.7342 43.4382 35.4121C43.0882 33.0374 44.0719 30.6626 45.9985 29.231C49.5051 26.6251 49.5051 21.3749 45.9985 18.769C44.0719 17.3374 43.0882 14.9626 43.4382 12.5879C44.0751 8.26581 40.3626 4.5533 36.0405 5.19024C33.6658 5.54019 31.2911 4.55652 29.8594 2.62994ZM24.3123 10.9806L17.5623 17.7306L18.9765 19.1449L24.0194 14.102L24.0194 20.4628H26.0194L26.0194 14.102L31.0623 19.1449L32.4765 17.7306L25.7265 10.9806L25.0194 10.2735L24.3123 10.9806ZM24.019 22.4878V27.2129C24.019 27.7652 24.4667 28.2129 25.019 28.2129C25.5713 28.2129 26.019 27.7652 26.019 27.2129V22.4878H33.8192C34.9238 22.4878 35.8192 23.3833 35.8192 24.4878V31.2878C35.8192 32.3924 34.9238 33.2878 33.8192 33.2878H16.2192C15.1146 33.2878 14.2192 32.3924 14.2192 31.2878V24.4878C14.2192 23.3833 15.1146 22.4878 16.2192 22.4878H24.019Z" fill="#333333"/>
</svg>
