<svg width="65" height="24" viewBox="0 0 65 24" fill="none" xmlns="http://www.w3.org/2000/svg">
<circle cx="9.5" cy="9.5" r="9.5" fill="url(#paint0_linear_127_525)"/>
<path d="M13 7.5H20.7778C21.6667 7.5 23 6.55909 23 5.25C23 3.61364 21.4889 3 20.7778 3C20.0667 3 14.1111 3 10.5556 3C9.22222 3 7 4.63636 7 7.09091C7 9.54545 8.5 12 13 12.5M18.8636 10.75C19.9007 10.8864 21.4333 11.3636 22.5 13M13.5455 16.5H9.22222C8.33333 16.5 7 17.1136 7 18.75C7 20.3864 8.33333 21 9.22222 21C9.93333 21 11.9158 21 13.5455 21M22.5 18.75C22.2037 19.4318 21.1507 21 18.8636 21M19.6679 16.8143L18.4061 17.375C17.7449 17.669 17 17.1849 17 16.4612V15.1995C17 14.437 17.8191 13.9551 18.4856 14.3254L19.7474 15.0263C20.4685 15.4269 20.4217 16.4792 19.6679 16.8143Z" stroke="#57DD00" stroke-width="2" stroke-linecap="round"/>
<path d="M43.563 11.625V10.214H35.352V11.625H43.563ZM35.352 17.082H43.563V15.552H35.352V17.082ZM43.563 14.311V12.866H35.352V14.311H43.563ZM47.082 7.511H40.486C40.299 7.97 40.112 8.429 39.925 8.837H45.212V19.343H43.563V18.459H35.352V19.343H33.771V8.837H38.225C38.344 8.412 38.48 7.936 38.565 7.511H31.952V6.049H36.1C35.76 5.505 35.233 4.791 34.774 4.281L36.168 3.669C36.78 4.247 37.443 5.08 37.783 5.658L37.035 6.049H41.251C41.761 5.369 42.339 4.4 42.679 3.72L44.464 4.128C44.005 4.808 43.495 5.488 43.036 6.049H47.082V7.511ZM50.822 7.902H54.732C54.97 7.341 55.208 6.678 55.361 6.066H49.292V4.604H63.844V6.066H57.163C56.891 6.712 56.585 7.341 56.313 7.902H62.399V15.688H60.716V9.364H52.437V15.739H50.822V7.902ZM57.367 10.265V13.308C57.367 15.671 56.262 18 49.836 19.377C49.649 19.003 49.224 18.408 48.867 18.085C54.919 16.912 55.735 15.008 55.735 13.291V10.265H57.367ZM57.18 16.198L58.098 15.127C60.002 15.909 62.603 17.235 63.912 18.136L62.926 19.394C61.702 18.459 59.135 17.082 57.18 16.198Z" fill="#57DD00"/>
<defs>
<linearGradient id="paint0_linear_127_525" x1="-2.5" y1="7" x2="9.5" y2="19" gradientUnits="userSpaceOnUse">
<stop stop-color="#AAF087"/>
<stop offset="1" stop-color="white" stop-opacity="0"/>
</linearGradient>
</defs>
</svg>
