<svg width="62" height="26" viewBox="0 0 62 26" fill="none" xmlns="http://www.w3.org/2000/svg">
<path d="M10.5455 8.5H17.7778C18.6667 8.5 20 7.55909 20 6.25C20 4.61364 18.4889 4 17.7778 4C17.0667 4 11.1111 4 7.55556 4C6.22222 4 4 5.63636 4 8.09091C4 10.5455 5.5 13 10 13.5M15.8636 11.75C16.9007 11.8864 18.4333 12.3636 19.5 14M10.5455 17.5H6.22222C5.33333 17.5 4 18.1136 4 19.75C4 21.3864 5.33333 22 6.22222 22C6.93333 22 8.91583 22 10.5455 22M19.5 19.75C19.2037 20.4318 18.1507 22 15.8636 22M16.6679 17.8143L15.4061 18.375C14.7449 18.669 14 18.1849 14 17.4612V16.1995C14 15.437 14.8191 14.9551 15.4856 15.3254L16.7474 16.0263C17.4685 16.4269 17.4217 17.4792 16.6679 17.8143Z" stroke="white" stroke-width="2" stroke-linecap="round"/>
<path d="M40.818 12.659V10.976H32.148V12.659H40.818ZM32.148 18.218H40.818V16.416H32.148V18.218ZM40.818 15.413V13.679H32.148V15.413H40.818ZM44.065 8.29H37.265C37.078 8.834 36.908 9.378 36.704 9.854H42.11V20.309H40.818V19.34H32.148V20.309H30.907V9.854H35.361C35.514 9.361 35.667 8.783 35.769 8.29H28.969V7.117H33.355C33.015 6.539 32.437 5.774 31.91 5.196L33.015 4.72C33.627 5.315 34.307 6.148 34.613 6.726L33.882 7.117H38.37C38.914 6.42 39.543 5.451 39.917 4.754L41.294 5.111C40.835 5.825 40.291 6.539 39.781 7.117H44.065V8.29ZM52.905 14.206V11.163H54.18V14.223C54.18 16.535 53.245 18.881 46.683 20.326C46.547 20.02 46.19 19.561 45.918 19.272C52.191 18.014 52.905 16.025 52.905 14.206ZM54.265 17.113L54.979 16.246C56.917 17.096 59.484 18.422 60.776 19.357L59.994 20.36C58.753 19.408 56.237 17.997 54.265 17.113ZM46.309 5.706H60.827V6.896H54.078C53.789 7.593 53.449 8.324 53.143 8.919H59.212V16.773H57.886V10.092H49.233V16.807H47.975V8.919H51.868C52.14 8.324 52.446 7.559 52.65 6.896H46.309V5.706Z" fill="white"/>
</svg>
