<svg width="62" height="26" viewBox="0 0 62 26" fill="none" xmlns="http://www.w3.org/2000/svg">
<circle cx="12" cy="8" r="4" stroke="#333333" stroke-width="2" stroke-linecap="round"/>
<path d="M5.98835 18.9102C6.74255 16.3508 9.33176 15 12 15V15C14.6682 15 17.2574 16.3508 18.0117 18.9102C18.2066 19.5719 18.3639 20.2797 18.4435 21.002C18.5039 21.551 18.0523 22 17.5 22H6.5C5.94772 22 5.49608 21.551 5.55654 21.002C5.63608 20.2797 5.79335 19.5719 5.98835 18.9102Z" stroke="#333333" stroke-width="2" stroke-linecap="round"/>
<path d="M37.163 18.507H44.048V19.748H29.02V18.507H35.82V14.342H30.584V13.118H35.82V9.395H29.802V8.154H37.265C36.602 7.372 35.395 6.301 34.375 5.553L35.395 4.839C36.483 5.621 37.843 6.777 38.506 7.576L37.707 8.154H43.198V9.395H37.163V13.118H42.501V14.342H37.163V18.507ZM52.905 14.206V11.163H54.18V14.223C54.18 16.535 53.245 18.881 46.683 20.326C46.547 20.02 46.19 19.561 45.918 19.272C52.191 18.014 52.905 16.025 52.905 14.206ZM54.265 17.113L54.979 16.246C56.917 17.096 59.484 18.422 60.776 19.357L59.994 20.36C58.753 19.408 56.237 17.997 54.265 17.113ZM46.309 5.706H60.827V6.896H54.078C53.789 7.593 53.449 8.324 53.143 8.919H59.212V16.773H57.886V10.092H49.233V16.807H47.975V8.919H51.868C52.14 8.324 52.446 7.559 52.65 6.896H46.309V5.706Z" fill="#333333"/>
</svg>
