<svg width="100" height="36" viewBox="0 0 100 36" fill="none" xmlns="http://www.w3.org/2000/svg">
<rect width="100" height="36" rx="18" fill="#333333"/>
<path d="M52.722 11.27L51.447 12.103C51.005 11.474 50.07 10.403 49.373 9.638L50.614 8.907C51.311 9.621 52.263 10.658 52.722 11.27ZM50.376 17.118H45.548C46.177 18.291 46.993 19.294 48.013 20.144C48.982 19.311 49.798 18.308 50.376 17.118ZM51.498 15.52L52.569 16.013C51.889 18.155 50.75 19.821 49.339 21.096C50.75 21.963 52.45 22.592 54.422 22.949C54.065 23.289 53.64 23.952 53.419 24.377C51.311 23.935 49.543 23.17 48.064 22.116C46.551 23.153 44.817 23.867 42.964 24.36C42.794 23.952 42.42 23.34 42.114 22.983C43.797 22.592 45.412 21.963 46.772 21.062C45.905 20.246 45.174 19.294 44.562 18.223C43.389 20.161 41.825 21.759 39.7 23.017C39.479 22.677 38.918 22.065 38.527 21.759C41.57 20.025 43.423 17.373 44.528 13.973H42.233C41.247 13.973 40.618 14.092 40.465 14.296C40.363 13.956 40.108 13.225 39.938 12.834C40.176 12.783 40.38 12.528 40.601 12.154C40.788 11.814 41.451 10.471 41.74 9.162L43.406 9.451C43.117 10.488 42.658 11.576 42.216 12.46H44.953C45.242 11.27 45.463 9.995 45.633 8.669L47.384 8.941C47.231 10.182 47.027 11.355 46.772 12.46H53.861L53.844 13.973H46.381C46.211 14.517 46.024 15.078 45.82 15.588H51.192L51.498 15.52ZM70.453 20.654L69.331 21.759C68.566 20.841 67.121 19.413 65.795 18.189C65.166 19.532 63.908 20.875 61.579 21.929C61.341 21.589 60.848 21.028 60.491 20.722C63.228 19.651 64.231 18.206 64.571 16.846H60.457V15.401H64.775V15.112V13.208H61.018V11.78H63.296C62.973 11.1 62.429 10.08 61.97 9.315L63.296 8.788C63.789 9.57 64.435 10.641 64.758 11.287L63.636 11.78H66.679C67.24 10.879 67.852 9.655 68.209 8.737L69.807 9.23C69.314 10.08 68.77 11.015 68.277 11.78H70.487V13.208H66.407V15.129V15.401H71.014V16.846H66.407C67.818 18.121 69.535 19.668 70.453 20.654ZM59.998 11.967L58.672 12.817C58.213 11.967 57.193 10.607 56.343 9.655L57.601 8.89C58.451 9.825 59.522 11.134 59.998 11.967ZM59.403 14.398V21.079C59.692 21.283 60.015 21.521 60.474 21.81C61.613 22.507 63.126 22.609 65.098 22.609C67.07 22.609 69.773 22.456 71.49 22.218C71.303 22.677 71.014 23.51 70.997 23.969C69.807 24.054 66.781 24.156 65.03 24.156C62.837 24.156 61.375 23.969 60.168 23.238C59.42 22.796 58.842 22.201 58.468 22.201C57.958 22.201 57.21 23.306 56.513 24.411L55.374 22.881C56.241 21.878 57.142 21.13 57.89 20.841V15.86H55.85V14.398H59.403Z" fill="#95EC69"/>
<path fill-rule="evenodd" clip-rule="evenodd" d="M80.4541 12.0545L81.5147 10.9275L87.355 17.1328C87.7174 17.5178 87.7174 18.1184 87.355 18.5035L81.5147 24.7087L80.4541 23.5818L85.8787 17.8181L80.4541 12.0545Z" fill="#95EC69"/>
<path d="M20.5455 13.5H27.7778C28.6667 13.5 30 12.5591 30 11.25C30 9.61364 28.4889 9 27.7778 9C27.0667 9 21.1111 9 17.5556 9C16.2222 9 14 10.6364 14 13.0909C14 15.5455 15.5 18 20 18.5M25.8636 16.75C26.9007 16.8864 28.4333 17.3636 29.5 19M20.5455 22.5H16.2222C15.3333 22.5 14 23.1136 14 24.75C14 26.3864 15.3333 27 16.2222 27C16.9333 27 18.9158 27 20.5455 27M29.5 24.75C29.2037 25.4318 28.1507 27 25.8636 27M26.6679 22.8143L25.4061 23.375C24.7449 23.669 24 23.1849 24 22.4612V21.1995C24 20.437 24.8191 19.9551 25.4856 20.3254L26.7474 21.0263C27.4685 21.4269 27.4217 22.4792 26.6679 22.8143Z" stroke="#95EC69" stroke-width="2" stroke-linecap="round"/>
</svg>
